HIERARCHY
ROOT Hips
{
 OFFSET 0.000000 0.000000 0.000000
 CHANNELS 6 Xposition Yposition Zposition Yrotation Xrotation Zrotation
 JOINT Chest
 {
  OFFSET 0.000000 10.354800 0.006500
  CHANNELS 3 Yrotation Xrotation Zrotation
  JOINT Chest2
  {
   OFFSET 0.000000 10.435800 -0.013200
   CHANNELS 3 Yrotation Xrotation Zrotation
   JOINT Chest3
   {
    OFFSET 0.000000 10.393700 0.000000
    CHANNELS 3 Yrotation Xrotation Zrotation
    JOINT Chest4
    {
     OFFSET 0.000000 10.383100 0.000000
     CHANNELS 3 Yrotation Xrotation Zrotation
     JOINT Neck
     {
      OFFSET 0.000000 15.694000 0.000000
      CHANNELS 3 Yrotation Xrotation Zrotation
      JOINT Head
      {
       OFFSET 0.000000 9.711000 -0.028000
       CHANNELS 3 Yrotation Xrotation Zrotation
       End Site
       {
        OFFSET 0.000000 18.578700 -0.014800
       }
      }
     }
     JOINT RightCollar
     {
      OFFSET -3.157200 10.367500 0.000000
      CHANNELS 3 Yrotation Xrotation Zrotation
      JOINT RightShoulder
      {
       OFFSET -14.482500 0.000000 0.000000
       CHANNELS 3 Yrotation Xrotation Zrotation
       JOINT RightElbow
       {
        OFFSET 0.000000 -31.707800 0.000000
        CHANNELS 3 Yrotation Xrotation Zrotation
        JOINT RightWrist
        {
         OFFSET 0.000000 -25.659300 0.000000
         CHANNELS 3 Yrotation Xrotation Zrotation
         End Site
         {
          OFFSET 0.000000 -18.994300 0.000000
         }
        }
       }
      }
     }
     JOINT LeftCollar
     {
      OFFSET 3.157200 10.367500 0.000000
      CHANNELS 3 Yrotation Xrotation Zrotation
      JOINT LeftShoulder
      {
       OFFSET 14.482500 0.000000 0.000000
       CHANNELS 3 Yrotation Xrotation Zrotation
       JOINT LeftElbow
       {
        OFFSET 0.000000 -31.707800 0.000000
        CHANNELS 3 Yrotation Xrotation Zrotation
        JOINT LeftWrist
        {
         OFFSET 0.000000 -25.659300 0.000000
         CHANNELS 3 Yrotation Xrotation Zrotation
         End Site
         {
          OFFSET 0.000000 -18.994300 0.000000
         }
        }
       }
      }
     }
    }
   }
  }
 }
 JOINT RightHip
 {
  OFFSET -8.365600 -0.032100 -0.003200
  CHANNELS 3 Yrotation Xrotation Zrotation
  JOINT RightKnee
  {
   OFFSET 0.000000 -43.980000 0.003100
   CHANNELS 3 Yrotation Xrotation Zrotation
   JOINT RightAnkle
   {
    OFFSET 0.000000 -42.882800 0.005200
    CHANNELS 3 Yrotation Xrotation Zrotation
    JOINT RightToe
    {
     OFFSET 0.000000 -4.915500 10.826300
     CHANNELS 3 Yrotation Xrotation Zrotation
     End Site
     {
      OFFSET 0.000000 -1.517500 6.175900
     }
    }
   }
  }
 }
 JOINT LeftHip
 {
  OFFSET 8.365600 -0.032100 -0.003200
  CHANNELS 3 Yrotation Xrotation Zrotation
  JOINT LeftKnee
  {
   OFFSET 0.000000 -43.980000 0.003100
   CHANNELS 3 Yrotation Xrotation Zrotation
   JOINT LeftAnkle
   {
    OFFSET 0.000000 -42.882800 0.005200
    CHANNELS 3 Yrotation Xrotation Zrotation
    JOINT LeftToe
    {
     OFFSET 0.000000 -4.915500 10.826300
     CHANNELS 3 Yrotation Xrotation Zrotation
     End Site
     {
      OFFSET 0.000000 -1.517500 6.175900
     }
    }
   }
  }
 }
}
MOTION
Frames: 16
Frame Time: 0.008333
0.000000 91.618600 0.000000 0.000000 -5.767877 0.000000 0.000000 11.653817 0.000000 0.000000 -5.885947 0.000000 0.000000 -0.000000 0.000000 0.000000 -0.000000 0.000000 0.000000 12.528835 0.000000 0.000000 0.711642 0.000000 0.000000 -0.000000 0.000000 0.000000 0.000000 -90.000000 0.000000 -2.309062 0.000000 0.000000 2.309062 0.000000 0.000000 -0.000000 0.000000 0.000000 -0.000000 90.000000 0.000000 -2.309062 0.000000 0.000000 2.309062 0.000000 0.000000 8.520406 0.000000 0.000000 1.905762 0.000000 -0.000000 -4.658285 0.000000 0.000000 -0.000000 0.000000 0.000000 8.520406 0.000000 0.000000 1.905762 0.000000 -0.000000 -4.658285 0.000000 0.000000 -0.000000 0.000000
-5.053756 147.087291 27.351124 174.628076 -15.699460 -4.607400 -0.550471 8.662628 4.064843 -0.055341 0.501708 0.244037 -0.094556 0.869029 0.422265 -0.639045 8.057800 3.883549 -1.602457 20.358481 -1.603103 -1.340493 -4.085445 -1.350472 1.111376 4.921625 -3.918442 14.159623 -7.088529 -5.178858 63.016259 -40.632659 -44.998728 -4.024924 -0.890040 -24.343969 -1.504252 6.597147 0.428423 -10.205655 -11.479581 -1.069747 -60.736871 -37.031387 43.324401 -10.591792 0.356171 25.460756 6.939708 -58.068975 -2.591768 -166.039250 72.689129 -157.233082 -1.013541 -30.833516 -0.834050 0.041680 -0.180455 0.002742 -12.884535 -55.796267 11.760561 165.394248 72.616465 161.610856 -2.548983 -33.696297 0.759581 0.008840 0.139243 -0.021092
-2.658097 140.471029 27.632342 174.689139 -15.697267 -4.618519 -0.598642 8.679819 4.069122 -0.046859 0.520232 0.251959 -0.103305 0.854629 0.413665 -0.624316 8.124600 3.871904 -1.614133 20.398605 -1.614632 -1.351121 -4.073091 -1.351776 1.124391 4.852864 -3.924357 14.278920 -7.049974 -5.348301 63.058508 -40.659164 -45.010685 -4.046533 -0.855543 -24.364826 -1.495868 6.581749 0.431113 -10.268395 -11.525836 -1.059033 -60.722103 -37.024301 43.364190 -10.617592 0.394256 25.449468 6.824699 -58.097054 -2.572665 -166.182266 72.656763 -157.388251 -1.000667 -30.891461 -0.858972 0.030116 -0.128947 0.013655 -12.944012 -55.768997 11.765203 165.385008 72.647655 161.597816 -2.535535 -33.634441 0.753101 -0.006683 0.077981 -0.003042
-0.681126 135.022870 27.863741 174.739614 -15.701350 -4.641723 -0.635526 8.702293 4.088282 -0.039632 0.539395 0.261281 -0.110592 0.839606 0.403742 -0.615692 8.173824 3.865254 -1.624451 20.431981 -1.623303 -1.360402 -4.034520 -1.358964 1.141489 4.801758 -3.935851 14.389812 -7.010958 -5.514288 63.118999 -40.672684 -45.050094 -4.048253 -0.823944 -24.352779 -1.498157 6.554310 0.432528 -10.358964 -11.505518 -1.060991 -60.690268 -37.024809 43.455382 -10.624155 0.389592 25.438910 6.742438 -58.114328 -2.552539 -166.278403 72.629216 -157.480999 -0.975016 -30.964467 -0.874205 0.009461 -0.064765 0.004292 -13.070617 -55.723044 11.852755 165.445738 72.683359 161.618473 -2.527224 -33.578828 0.746555 -0.011901 0.032561 -0.005407
0.744629 131.087966 28.030635 174.783559 -15.706300 -4.638963 -0.650878 8.763824 4.108984 -0.053942 0.509854 0.244138 -0.104320 0.853863 0.406216 -0.623006 8.184806 3.851104 -1.631430 20.431382 -1.627270 -1.366635 -3.946697 -1.370377 1.237256 4.824629 -3.960446 14.410418 -7.024699 -5.672911 63.183764 -40.681508 -45.104324 -4.036689 -0.806483 -24.315628 -1.503077 6.516195 0.433221 -10.394508 -11.487024 -1.060478 -60.689103 -37.024924 43.516516 -10.628819 0.414333 25.426315 6.709176 -58.126244 -2.582710 -166.380863 72.603105 -157.578247 -0.962232 -31.013542 -0.879225 0.000729 -0.022021 0.000331 -13.156376 -55.686858 11.901581 165.447598 72.711214 161.580318 -2.553491 -33.540775 0.742921 -0.008484 0.007072 -0.003852
1.648171 128.602898 28.136931 174.798034 -15.710478 -4.639773 -0.651680 8.807779 4.129440 -0.061309 0.478802 0.227418 -0.091471 0.915340 0.431092 -0.639263 8.131371 3.822848 -1.636374 20.538488 -1.635000 -1.371461 -3.936232 -1.374819 1.299888 4.868838 -3.973064 14.454702 -7.023178 -5.837648 63.248867 -40.690825 -45.165057 -4.017487 -0.807451 -24.261845 -1.494512 6.548820 0.436519 -10.430999 -11.503751 -1.053383 -60.690207 -37.032338 43.564625 -10.636409 0.432785 25.423324 6.697299 -58.130074 -2.591779 -166.481156 72.589777 -157.656932 -0.965226 -31.034305 -0.889950 0.002335 -0.008759 0.001060 -13.255333 -55.649718 12.009444 165.597190 72.742413 161.674338 -2.562147 -33.532142 0.743972 -0.004145 0.002560 -0.001882
2.143468 127.235813 28.196069 174.810478 -15.711002 -4.620752 -0.659194 8.839995 4.124755 -0.061701 0.482863 0.225500 -0.095571 0.889958 0.420034 -0.635183 8.189425 3.823344 -1.643075 20.590390 -1.640297 -1.372907 -3.928105 -1.381247 1.342229 4.856870 -3.985303 14.499833 -7.015415 -6.002310 63.308966 -40.709399 -45.217765 -3.996233 -0.830419 -24.205492 -1.469723 6.571009 0.436350 -10.474509 -11.567223 -1.033690 -60.690269 -37.044778 43.594694 -10.646050 0.449503 25.430730 6.708729 -58.139254 -2.645752 -166.651248 72.574412 -157.800638 -0.965263 -31.044534 -0.893054 0.006081 -0.001908 0.002761 -13.243258 -55.644493 11.987657 165.626642 72.756535 161.701053 -2.548706 -33.520508 0.733999 -0.010456 -0.004288 -0.004747
2.375987 126.584413 28.224831 174.829872 -15.708483 -4.585246 -0.676304 8.868757 4.100881 -0.059885 0.503466 0.235728 -0.099370 0.878002 0.411000 -0.643019 8.281097 3.823145 -1.639670 20.505756 -1.654544 -1.373506 -3.853585 -1.388096 1.389497 4.783681 -4.011427 14.526181 -7.009971 -6.165966 63.351046 -40.745541 -45.243892 -3.980818 -0.885005 -24.158442 -1.458947 6.462871 0.421660 -10.481547 -11.581002 -1.027286 -60.683660 -37.052771 43.603161 -10.644685 0.472168 25.461447 6.732634 -58.147925 -2.721255 -166.741837 72.561015 -157.890513 -0.958690 -31.048913 -0.891638 0.002415 0.003152 0.001096 -13.237497 -55.641903 11.966268 165.613928 72.765963 161.670716 -2.570822 -33.514844 0.727508 -0.008323 -0.007552 -0.003779
2.474047 126.318194 28.237382 174.835497 -15.709233 -4.575247 -0.675462 8.899251 4.103157 -0.063162 0.490467 0.232171 -0.097545 0.900353 0.420582 -0.652268 8.290009 3.809724 -1.637030 20.503708 -1.657818 -1.372966 -3.788458 -1.391757 1.429800 4.790218 -4.022020 14.529046 -7.004303 -6.327397 63.370519 -40.804946 -45.237818 -3.977572 -0.973586 -24.121081 -1.455248 6.437377 0.415958 -10.494031 -11.565137 -1.011397 -60.686603 -37.083218 43.638994 -10.647106 0.476779 25.466818 6.712053 -58.155493 -2.731894 -166.852303 72.550913 -157.995350 -0.956528 -31.052470 -0.900112 -0.000217 0.005044 -0.000099 -13.245474 -55.631861 11.994915 165.533424 72.766951 161.572728 -2.635628 -33.512408 0.739961 -0.010422 -0.007234 -0.004731
2.508135 126.225649 28.242309 174.851965 -15.709678 -4.565279 -0.687635 8.929018 4.099444 -0.061573 0.494921 0.233741 -0.099004 0.905500 0.420828 -0.666897 8.312088 3.800073 -1.629761 20.529805 -1.658158 -1.368788 -3.775536 -1.393669 1.475444 4.781496 -4.028081 14.506783 -6.995657 -6.481410 63.367951 -40.890509 -45.197933 -3.988777 -1.093663 -24.092370 -1.448255 6.425017 0.407954 -10.484596 -11.534871 -0.975897 -60.730127 -37.144965 43.707810 -10.648554 0.481233 25.470371 6.656239 -58.164947 -2.724068 -166.975096 72.540457 -158.116595 -0.962012 -31.054978 -0.921429 0.003727 0.003110 0.001692 -13.256175 -55.622873 12.019994 165.623999 72.782246 161.639630 -2.651406 -33.511946 0.748048 -0.006442 -0.005062 -0.002924
2.517351 126.198719 28.244406 174.869908 -15.709480 -4.552975 -0.704815 8.956943 4.091590 -0.059776 0.528683 0.243672 -0.099370 0.881052 0.412368 -0.684246 8.347991 3.791571 -1.619667 20.536514 -1.659739 -1.362215 -3.767707 -1.394174 1.523172 4.757441 -4.033431 14.462856 -6.985691 -6.623118 63.335952 -41.004728 -45.117185 -4.014554 -1.241531 -24.072939 -1.437958 6.438156 0.387467 -10.479386 -11.595359 -0.937063 -60.741555 -37.162357 43.725077 -10.631578 0.497500 25.492834 6.643625 -58.168553 -2.741615 -167.017867 72.533784 -158.154840 -0.961744 -31.055533 -0.923568 0.005333 0.005782 0.002422 -13.246931 -55.621133 12.006346 165.678147 72.792336 161.683008 -2.649709 -33.511955 0.755016 -0.007319 -0.004173 -0.003323
2.516451 126.192174 28.245553 174.887108 -15.708170 -4.528959 -0.724795 8.982574 4.071390 -0.060654 0.531450 0.243896 -0.103584 0.919400 0.421528 -0.693567 8.336888 3.775699 -1.611270 20.550704 -1.660637 -1.356280 -3.762079 -1.393981 1.567889 4.745417 -4.035603 14.402405 -6.975294 -6.757246 63.266596 -41.151949 -44.991279 -4.053891 -1.411049 -24.061760 -1.428266 6.411795 0.377210 -10.471581 -11.603066 -0.919485 -60.753486 -37.179552 43.741608 -10.630183 0.503863 25.499958 6.621279 -58.178093 -2.757379 -167.036732 72.520978 -158.189556 -0.959612 -31.054906 -0.925423 0.005921 0.005196 0.002688 -13.221325 -55.626000 11.959758 165.690506 72.797221 161.691425 -2.648650 -33.509273 0.755852 -0.007372 -0.004652 -0.003347
2.515810 126.191188 28.246601 174.891817 -15.708693 -4.516677 -0.731042 8.996059 4.061866 -0.061107 0.532864 0.244019 -0.105542 0.929952 0.423577 -0.708070 8.368544 3.768747 -1.599568 20.559474 -1.658019 -1.350509 -3.759389 -1.394177 1.615922 4.728300 -4.031679 14.334330 -6.962148 -6.888783 63.158784 -41.330052 -44.820270 -4.105975 -1.598531 -24.062365 -1.410342 6.365807 0.374070 -10.459665 -11.565590 -0.902925 -60.780112 -37.220142 43.778273 -10.635065 0.502239 25.511820 6.574335 -58.187640 -2.732685 -167.029055 72.510772 -158.209982 -0.951740 -31.053740 -0.929793 0.001526 0.003970 0.000693 -13.191974 -55.625584 11.939871 165.718934 72.807054 161.712186 -2.662478 -33.509008 0.771842 -0.007585 -0.003061 -0.003444
2.514821 126.191386 28.247642 174.899661 -15.708991 -4.508261 -0.746992 9.027404 4.054003 -0.053963 0.516714 0.243685 -0.105078 0.924249 0.421957 -0.722296 8.402530 3.763955 -1.591718 20.579042 -1.653670 -1.345587 -3.759324 -1.395755 1.659868 4.721202 -4.021676 14.266897 -6.945054 -7.018410 63.011346 -41.535667 -44.605474 -4.169001 -1.802552 -24.076709 -1.406341 6.360934 0.364728 -10.425261 -11.489469 -0.841160 -60.859818 -37.319372 43.866420 -10.620585 0.512446 25.532676 6.520302 -58.193905 -2.704250 -167.014019 72.502451 -158.216846 -0.942263 -31.053290 -0.930260 0.000369 0.004125 0.000167 -13.154863 -55.628930 11.917074 165.707107 72.814295 161.696241 -2.694381 -33.504641 0.795813 -0.008006 -0.002283 -0.003635
2.514833 126.192051 28.248437 174.896491 -15.712243 -4.504908 -0.757201 9.060287 4.049362 -0.048912 0.514663 0.244067 -0.106601 0.929249 0.422312 -0.716176 8.384722 3.761902 -1.601512 20.622646 -1.653477 -1.339925 -3.761289 -1.402069 1.690055 4.739175 -4.008823 14.203726 -6.922863 -7.150456 62.822662 -41.773052 -44.349773 -4.236652 -2.017475 -24.101755 -1.458374 6.414468 0.343602 -10.352956 -11.498444 -0.782201 -60.901796 -37.380660 43.898452 -10.613427 0.519904 25.545719 6.414384 -58.202843 -2.617855 -166.961585 72.498542 -158.206231 -0.932084 -31.043180 -0.941313 0.003354 0.001807 0.001523 -13.134342 -55.628241 11.904072 165.698355 72.815434 161.689058 -2.700792 -33.505855 0.793776 -0.005542 -0.002140 -0.002516
2.515157 126.192997 28.248778 174.888511 -15.718473 -4.503387 -0.762615 9.089119 4.045907 -0.046882 0.518187 0.248126 -0.125088 0.963678 0.420454 -0.705288 8.380230 3.761035 -1.595027 20.623617 -1.656534 -1.334394 -3.778126 -1.411363 1.725345 4.700551 -4.006104 14.153264 -6.886739 -7.277998 62.597247 -42.042500 -44.052672 -4.307671 -2.233944 -24.140003 -1.457903 6.385667 0.329401 -10.312467 -11.468854 -0.731016 -60.940309 -37.440900 43.928277 -10.608663 0.520250 25.551557 6.350137 -58.202161 -2.558132 -166.920325 72.497955 -158.192080 -0.925774 -31.041268 -0.942334 0.002032 0.002321 0.000923 -13.087614 -55.627443 11.876821 165.690296 72.815395 161.694714 -2.709650 -33.508118 0.796674 -0.001056 -0.001917 -0.000479
